<svg width="41" height="64" viewBox="0 0 41 64" fill="none" xmlns="http://www.w3.org/2000/svg">
<path d="M20.5 0C9.17767 0 0 9.22073 0 20.5962C0 31.9716 20.5 61.1851 20.5 61.1851C20.5 61.1851 41 31.9716 41 20.5962C41 9.22073 31.8208 0 20.5 0ZM20.5 35.3237C12.4041 35.3237 5.83962 28.7301 5.83962 20.5946C5.83962 12.4607 12.4025 5.86544 20.5 5.86544C28.5959 5.86544 35.1604 12.4591 35.1604 20.5946C35.1588 28.7301 28.5959 35.3237 20.5 35.3237Z" fill="url(#paint0_linear)"/>
<path d="M20.6432 9.4559C20.6118 9.31057 20.53 9.16366 20.4766 9.02148C18.8602 13.2756 15.2847 16.4698 13.8901 20.8345C12.3885 25.5294 15.3571 30.6002 20.4766 30.6192C25.1275 30.5939 28.3413 26.215 27.302 21.7033C26.225 17.0179 22.2297 13.8728 20.6432 9.4559ZM24.0583 28.3302C24.7313 27.1944 25.3209 26.1297 25.7501 24.8675C26.0693 23.58 26.1511 22.3558 26.2234 21.0414C26.9011 23.7159 26.0961 26.4725 24.0583 28.3302Z" fill="url(#paint1_linear)"/>
<path d="M32.5756 60.6787C32.4718 60.4892 32.3429 60.3549 32.2218 60.2554C31.9749 60.0548 31.7328 59.9394 31.4922 59.8336C31.2532 59.7309 31.0111 59.6504 30.7737 59.5824C29.8193 59.3076 28.868 59.1654 27.9152 59.0516C26.0079 58.8542 24.1039 58.8068 22.2045 58.8984C24.0913 59.1038 25.9749 59.3249 27.8161 59.6993C28.7328 59.8857 29.651 60.0958 30.5001 60.4133C30.7108 60.4908 30.9152 60.5792 31.107 60.6756C31.2171 60.7309 31.3224 60.7909 31.4152 60.8541C31.6274 60.9978 31.6306 61.1416 31.4262 61.2869C31.4167 61.2932 31.4089 61.2996 31.3995 61.3043C31.0661 61.4923 30.6384 61.6392 30.2061 61.7545C29.7721 61.873 29.324 61.9694 28.8711 62.0515C27.9623 62.2142 27.0394 62.3311 26.1101 62.4148C25.1793 62.5033 24.2469 62.5649 23.3098 62.6028C22.3743 62.6423 21.4372 62.6628 20.5001 62.6628C19.563 62.6628 18.6259 62.6439 17.6903 62.6028C16.7548 62.5649 15.8208 62.5033 14.89 62.4148C13.9608 62.3295 13.0362 62.2126 12.129 62.0515C11.6746 61.9694 11.2265 61.873 10.7941 61.7545C10.3617 61.6392 9.93403 61.4923 9.6007 61.3043C9.59127 61.298 9.58341 61.2917 9.57397 61.2869C9.368 61.1432 9.37114 60.9994 9.58498 60.8541C9.67618 60.7909 9.7831 60.7309 9.89316 60.6756C10.0834 60.5808 10.2878 60.4908 10.5001 60.4133C11.3491 60.0958 12.2674 59.8841 13.184 59.6993C15.0252 59.3249 16.9089 59.1038 18.7957 58.8984C16.8963 58.8068 14.9922 58.8542 13.085 59.0516C12.1306 59.1638 11.1793 59.3076 10.2265 59.5824C9.98907 59.6504 9.74693 59.7309 9.50794 59.8336C9.26894 59.9394 9.02523 60.0548 8.77838 60.2554C8.65731 60.3549 8.52838 60.4892 8.4246 60.6787C8.37743 60.7862 8.33655 60.8936 8.32555 61.0263C8.31611 61.0895 8.32083 61.1527 8.32869 61.2158C8.33655 61.279 8.34284 61.347 8.36643 61.3975C8.38372 61.4528 8.40574 61.5081 8.42932 61.5602C8.45448 61.6076 8.4812 61.6471 8.50951 61.6913C8.56611 61.7845 8.62429 61.8367 8.68561 61.9046C8.74694 61.9678 8.80511 62.012 8.868 62.0657C8.92932 62.1131 8.9875 62.1526 9.04882 62.1953C9.52995 62.4986 10.0032 62.6723 10.4765 62.8303C10.9513 62.9819 11.4262 63.102 11.9026 63.2078C12.8523 63.4211 13.8082 63.5601 14.7611 63.677C15.7171 63.7908 16.673 63.865 17.6306 63.9219C18.5897 63.9693 19.5457 63.9945 20.5032 63.9993H20.5048H20.5064C21.4639 63.9945 22.4199 63.9693 23.379 63.9219C24.3366 63.865 25.2925 63.7908 26.2485 63.677C27.2029 63.5601 28.1573 63.4195 29.107 63.2078C29.5834 63.102 30.0583 62.9819 30.5331 62.8303C31.0064 62.6723 31.4796 62.4986 31.9608 62.1953C32.0221 62.1526 32.0803 62.1131 32.1416 62.0657C32.2045 62.012 32.2627 61.9678 32.324 61.9046C32.3853 61.8367 32.4435 61.7845 32.5001 61.6913C32.5284 61.6487 32.5551 61.6076 32.5803 61.5602C32.6039 61.5065 32.6259 61.4512 32.6432 61.3975C32.6652 61.347 32.673 61.279 32.6809 61.2158C32.6888 61.1527 32.6935 61.0895 32.684 61.0263C32.6652 60.8936 32.6227 60.7846 32.5756 60.6787Z" fill="url(#paint2_linear)"/>
<defs>
<linearGradient id="paint0_linear" x1="20.5" y1="0" x2="20.5" y2="61.185" gradientUnits="userSpaceOnUse">
<stop stop-color="#00C2CB"/>
<stop offset="0.510417" stop-color="#00C2CB" stop-opacity="0.76"/>
<stop offset="1" stop-color="#00C2CB"/>
</linearGradient>
<linearGradient id="paint1_linear" x1="20.499" y1="9.02148" x2="20.499" y2="30.6192" gradientUnits="userSpaceOnUse">
<stop stop-color="#00C2CB"/>
<stop offset="0.510417" stop-color="#00C2CB" stop-opacity="0.76"/>
<stop offset="1" stop-color="#00C2CB"/>
</linearGradient>
<linearGradient id="paint2_linear" x1="20.5048" y1="58.8535" x2="20.5048" y2="63.9993" gradientUnits="userSpaceOnUse">
<stop stop-color="#00C2CB"/>
<stop offset="0.510417" stop-color="#00C2CB" stop-opacity="0.76"/>
<stop offset="1" stop-color="#00C2CB"/>
</linearGradient>
</defs>
</svg>
