<svg xmlns="http://www.w3.org/2000/svg" xmlns:xlink="http://www.w3.org/1999/xlink" width="1168.5408" height="144.53632" fill="none">
  <defs/>
  <path d="M41.8069 35.4167V20.8333h-4.1667V10.4167h-8.3539c.0007-.3146-.0489-.63128-.1992-.93184l-4.1666-8.33333C24.5664.445556 23.8463 0 23.0569 0h-8.4723c-1.1515 0-2.0833.931806-2.0833 2.08333v8.33337H8.33464v10.4166H4.16797V43.75H54.3069v-8.3333z" fill="url(#a)" transform="translate(1.4135079 .48) scale(.9904)"/>
  <path d="M6.25 8.3339844c-1.15153 0-2.0839844.9305312-2.0839844 2.0820316C4.1660156 11.567616 5.09847 12.5 6.25 12.5h33.472656c1.1516 0 2.082032-.932384 2.082032-2.083984 0-1.1515004-.930432-2.0820316-2.082032-2.0820316zM2.0839844 18.75C.93246037 18.75 0 19.682484 0 20.833984s.93246037 2.082032 2.0839844 2.082032H43.888672c1.1515 0 2.083984-.930532 2.083984-2.082032S45.040172 18.75 43.888672 18.75zM52.222656 25c-1.1515 0-2.083984.932484-2.083984 2.083984 0 1.1494-.934585 2.082032-2.083984 2.082032H2.0839844C.93246037 29.166016 0 30.0984 0 31.25v12.5c0 1.1515.93246037 2.083984 2.0839844 2.083984H6.25c1.14944 0 2.0839844.932632 2.0839844 2.082032 0 1.1516.9304712 2.083984 2.0820316 2.083984h37.638672c12.6362 0 23.05664-10.279816 23.05664-22.916016 0-1.1515-.932484-2.083984-2.083984-2.083984zM18.888672 37.5c1.1505 0 2.083984.933184 2.083984 2.083984 0 1.1506-.933484 2.082032-2.083984 2.082032-1.1506 0-2.083984-.931432-2.083984-2.082032 0-1.1508.933384-2.083984 2.083984-2.083984zm8.333984 0c1.1506 0 2.082032.933184 2.082032 2.083984 0 1.1506-.931432 2.082032-2.082032 2.082032-1.1505 0-2.083984-.931432-2.083984-2.082032 0-1.1508.933484-2.083984 2.083984-2.083984zm8.332032 0c1.1505 0 2.083984.933184 2.083984 2.083984 0 1.1506-.933484 2.082032-2.083984 2.082032-1.1506 0-2.082032-.931432-2.082032-2.082032 0-1.1508.931432-2.083984 2.082032-2.083984zm8.333984 0c1.1505 0 2.083984.933184 2.083984 2.083984 0 1.1506-.933484 2.082032-2.083984 2.082032-1.1506 0-2.083985-.931432-2.083984-2.082032 0-1.1508.933384-2.083984 2.083984-2.083984z" fill="url(#b)" transform="translate(1.4135079 .48) scale(.9904)"/>
  <defs>
    <linearGradient id="g">
      <stop offset="0" stop-color="#e79aff"/>
      <stop offset=".2493147" stop-color="#9815c3"/>
      <stop offset=".75826788" stop-color="#9815c3"/>
      <stop offset="1" stop-color="#e79aff"/>
    </linearGradient>
    <linearGradient id="f">
      <stop offset="0" stop-color="#ffebad"/>
      <stop offset=".29911295" stop-color="#f4c63c" stop-opacity=".96078432"/>
      <stop offset=".69269222" stop-color="#f4c63c" stop-opacity=".96078432"/>
      <stop offset="1" stop-color="#ffebad"/>
    </linearGradient>
    <linearGradient id="e">
      <stop offset="0" stop-color="#f5f5f5"/>
      <stop offset=".25171745" stop-color="#a2a2a4"/>
      <stop offset=".72533041" stop-color="#a2a2a4"/>
      <stop offset="1" stop-color="#f5f5f5"/>
    </linearGradient>
    <linearGradient id="d">
      <stop offset="0" stop-color="#ffe6d9"/>
      <stop offset=".26752383" stop-color="#d09e84"/>
      <stop offset=".71783167" stop-color="#d09e84"/>
      <stop offset="1" stop-color="#ffe6d9"/>
    </linearGradient>
    <linearGradient id="c">
      <stop offset="0" stop-color="#d09e84" stop-opacity=".95979899"/>
      <stop offset=".45733809" stop-color="#ffe6d9"/>
      <stop offset="1" stop-color="#986a55" stop-opacity=".90954775"/>
    </linearGradient>
    <linearGradient id="a" x1="29.2374" y1="43.75" x2="29.2374" y2="0" gradientUnits="userSpaceOnUse">
      <stop stop-color="#FFC2CC"/>
      <stop offset="1" stop-color="#FFF2F4"/>
    </linearGradient>
    <linearGradient id="b" x1="35.555599" y1="50.000198" x2="35.555599" y2="8.3334999" gradientUnits="userSpaceOnUse">
      <stop stop-color="#FD3A84"/>
      <stop offset="1" stop-color="#FFA68D"/>
    </linearGradient>
    <linearGradient xlink:href="#c" id="h" x1="120.90688" y1="38.64629" x2="338" y2="38.48" gradientUnits="userSpaceOnUse" gradientTransform="translate(-59.713661 75.163141)"/>
    <linearGradient xlink:href="#c" id="i" gradientUnits="userSpaceOnUse" gradientTransform="translate(217.05063 75.163141)" x1="120.90688" y1="38.64629" x2="338" y2="38.48"/>
    <linearGradient xlink:href="#c" id="k" gradientUnits="userSpaceOnUse" gradientTransform="translate(493.71063 75.163141)" x1="120.90688" y1="38.64629" x2="338" y2="38.48"/>
    <linearGradient xlink:href="#c" id="m" gradientUnits="userSpaceOnUse" gradientTransform="translate(770.38073 75.163141)" x1="120.90688" y1="38.64629" x2="338" y2="38.48"/>
    <linearGradient xlink:href="#d" id="j" x1="315.38687" y1="103.92629" x2="374.15118" y2="103.92629" gradientUnits="userSpaceOnUse" gradientTransform="translate(-37.100536 9.716851)"/>
    <linearGradient xlink:href="#e" id="l" x1="592.15118" y1="103.92629" x2="650.81116" y2="103.92629" gradientUnits="userSpaceOnUse" gradientTransform="translate(-37.100536 9.716851)"/>
    <linearGradient xlink:href="#f" id="n" x1="868.81116" y1="103.92629" x2="928.95264" y2="103.92629" gradientUnits="userSpaceOnUse" gradientTransform="translate(-37.100536 9.716851)"/>
    <linearGradient xlink:href="#g" id="o" x1="1143.8549" y1="103.92629" x2="1205.6414" y2="103.92629" gradientUnits="userSpaceOnUse" gradientTransform="translate(-37.100536 9.716851)"/>
    <linearGradient gradientUnits="userSpaceOnUse" y2="0" x2="21.9727" y1="50" x1="21.9727" id="q">
      <stop stop-color="#FD3A84"/>
      <stop stop-color="#FFA68D" offset="1"/>
    </linearGradient>
    <linearGradient gradientUnits="userSpaceOnUse" y2="0" x2="13.7207" y1="41.210899" x1="13.7207" id="p">
      <stop stop-color="#FFC2CC"/>
      <stop stop-color="#FFF2F4" offset="1"/>
    </linearGradient>
  </defs>
  <path d="M60.286339 113.64314H278.28634" fill="url(#h)" stroke="#d09e84" stroke-width="2.70700002" stroke-linecap="round"/>
  <path d="M60.286339 113.64314a29.393169 29.393169 0 01-29.393169 29.39317A29.393169 29.393169 0 011.5 113.64314a29.393169 29.393169 0 0129.39317-29.393166 29.393169 29.393169 0 0129.393169 29.393166z" stroke="#d0d0d0" stroke-width="3" stroke-linecap="round" stroke-linejoin="round" stroke-miterlimit="10"/>
  <path d="M337.05063 113.64314h218" fill="url(#i)" stroke="#d0d0d0" stroke-width="2.70700002" stroke-linecap="round"/>
  <path d="M336.97495 113.64314a29.393169 29.393169 0 01-29.39317 29.39317 29.393169 29.393169 0 01-29.39317-29.39317 29.393169 29.393169 0 0129.39317-29.393166 29.393169 29.393169 0 0129.39317 29.393166z" stroke="url(#j)" stroke-width="3" stroke-linecap="round" stroke-linejoin="round" stroke-miterlimit="10"/>
  <path d="M613.71063 113.64314h218" fill="url(#k)" stroke="#f3c63d" stroke-width="2.70700002" stroke-linecap="round" stroke-opacity=".95979901"/>
  <path d="M613.66357 113.64314a29.393169 29.393169 0 01-29.39317 29.39317 29.393169 29.393169 0 01-29.39317-29.39317 29.393169 29.393169 0 0129.39317-29.393166 29.393169 29.393169 0 0129.39317 29.393166z" stroke="url(#l)" stroke-width="3" stroke-linecap="round" stroke-linejoin="round" stroke-miterlimit="10"/>
  <path d="M890.38073 113.64314h218.00017" fill="url(#m)" stroke="#9815c3" stroke-width="2.70700002" stroke-linecap="round"/>
  <path d="M890.35211 113.64314a29.393169 29.393169 0 01-29.39317 29.39317 29.393169 29.393169 0 01-29.39317-29.39317 29.393169 29.393169 0 0129.39317-29.393166 29.393169 29.393169 0 0129.39317 29.393166z" fill="none" stroke="url(#n)" stroke-width="3" stroke-linecap="round" stroke-linejoin="round" stroke-miterlimit="10"/>
  <path d="M1167.0408 113.64314a29.393169 29.393169 0 01-29.3932 29.39317 29.393169 29.393169 0 01-29.3932-29.39317 29.393169 29.393169 0 0129.3932-29.393166 29.393169 29.393169 0 0129.3932 29.393166z" stroke="url(#o)" stroke-width="3" stroke-linecap="round" stroke-linejoin="round" stroke-miterlimit="10"/>
  <path d="M14.6484 5.85938V1.46484C14.6484.655859 13.9926 0 13.1836 0s-1.4648.655859-1.4648 1.46484V39.7461c0 .809.6558 1.4648 1.4648 1.4648s1.4648-.6558 1.4648-1.4648V25.6718l1.0743-3.8945V8.10547z" fill="url(#p)" transform="translate(1123.8233)"/>
  <path d="M23.2829 42.0207c-.2482-.4963-.7554-.8098-1.3102-.8098h-1.4648v-1.4648c0-.809-.6559-1.4649-1.4649-1.4649H7.32426c-.80898 0-1.46484.6559-1.46484 1.4649v1.4648H4.39458c-.55489 0-1.06202.3135-1.31026.8098L.154634 47.8801c-.2270504.454-.2027339.9933.064161 1.4252C.485689 49.7371.957173 50 1.46489 50H24.9024c.5077 0 .9792-.2629 1.2461-.6947.2669-.4319.2911-.9712.0641-1.4252zM10.254 2.92969h5.8593c.809 0 1.4649-.65586 1.4649-1.46485C17.5782.655859 16.9223 0 16.1133 0H10.254c-.80903 0-1.46489.655859-1.46489 1.46484 0 .80899.65576 1.46485 1.46489 1.46485zm33.1958 6.22607c-.4979-.43955-1.2293-.48896-1.7819-.1207l-1.9184 1.27904c-1.7967 1.1978-3.2702 1.6772-4.6001 1.6771-2.1223-.0001-3.8788-1.2215-5.9959-2.69384-2.3171-1.61152-4.9434-3.43798-8.4233-3.43798h-6.0817V25.6718c3.0188-2.1312 6.706-5.2614 10.796-2.194 2.515 1.8863 4.968 2.5483 7.2906 1.9675 4.7985-1.1998 7.6481-7.2961 9.938-12.1946.3933-.8415.7649-1.6362 1.1177-2.3418.2969-.594.1571-1.31359-.341-1.75314z" fill="url(#q)" transform="translate(1123.8233)"/>
  <g aria-label="1500" style="line-height:1.25;-inkscape-font-specification:'Futura Md BT'" font-weight="400" font-size="17.83665276" font-family="Gilroy-Bold" letter-spacing="0" word-spacing="0" fill="#b622e5" stroke-width=".83609307">
    <path d="M1121.856 107.40031h2.1404v12.48566h-2.4615v-9.8815l-2.3544.65995-.6065-2.10472zM1130.2698 111.94866q1.8015 0 3.0323 1.08804 1.2307 1.0702 1.2307 2.99655 0 1.92636-1.3021 3.0144-1.2842 1.08803-3.1571 1.08803-1.5161 0-2.6755-.67779-1.1593-.67779-1.6766-1.9977l2.1047-1.23073q.4638 1.49828 2.2474 1.49828.9454 0 1.4626-.44592.5351-.46375.5351-1.24857 0-.76697-.5172-1.23072-.5173-.46376-1.4091-.46376h-3.7814l.4994-6.93846h7.0812v2.30093h-4.7981l-.1605 2.24742zM1140.4744 120.13568q-2.3366 0-3.6744-1.76582-1.3199-1.78367-1.3199-4.72672 0-2.94305 1.3199-4.70887 1.3378-1.78367 3.6744-1.78367 2.3544 0 3.6743 1.78367 1.3199 1.76582 1.3199 4.70887 0 2.94305-1.3199 4.72672-1.3199 1.76582-3.6743 1.76582zm-1.8907-3.44247q.6421 1.03453 1.8907 1.03453 1.2485 0 1.8906-1.05237.66-1.05236.66-3.03223 0-1.9977-.66-3.05007-.6421-1.05236-1.8906-1.05236-1.2486 0-1.8907 1.05236-.6422 1.05237-.6422 3.05007 0 1.99771.6422 3.05007zM1151.7268 120.13568q-2.3366 0-3.6744-1.76582-1.3199-1.78367-1.3199-4.72672 0-2.94305 1.3199-4.70887 1.3378-1.78367 3.6744-1.78367 2.3544 0 3.6743 1.78367 1.3199 1.76582 1.3199 4.70887 0 2.94305-1.3199 4.72672-1.3199 1.76582-3.6743 1.76582zm-1.8907-3.44247q.6421 1.03453 1.8907 1.03453 1.2485 0 1.8907-1.05237.6599-1.05236.6599-3.03223 0-1.9977-.6599-3.05007-.6422-1.05236-1.8907-1.05236-1.2486 0-1.8907 1.05236-.6421 1.05237-.6421 3.05007 0 1.99771.6421 3.05007z" style="-inkscape-font-specification:Gilroy-Bold"/>
  </g>
  <g aria-label="750" style="line-height:1.25;-inkscape-font-specification:'Futura Md BT'" font-weight="400" font-size="17.83665276" font-family="Gilroy-Bold" letter-spacing="0" word-spacing="0" fill="#f4c63c" fill-opacity=".96078431" stroke-width=".83609307">
    <path d="M847.14631 107.40031h8.06216v2.08689l-4.22728 10.39877h-2.60416l4.10243-10.13122h-5.33315zM859.57288 111.94866q1.8015 0 3.03223 1.08804 1.23073 1.0702 1.23073 2.99655 0 1.92636-1.30208 3.0144-1.28424 1.08803-3.15708 1.08803-1.51612 0-2.6755-.67779-1.15939-.67779-1.67665-1.9977l2.10473-1.23073q.46375 1.49828 2.24742 1.49828.94534 0 1.4626-.44592.5351-.46375.5351-1.24857 0-.76697-.51726-1.23072-.51727-.46376-1.4091-.46376h-3.78137l.49943-6.93846h7.08115v2.30093h-4.79806l-.16053 2.24742zM869.7774 120.13568q-2.33661 0-3.67436-1.76582-1.31991-1.78367-1.31991-4.72672 0-2.94305 1.31991-4.70887 1.33775-1.78367 3.67436-1.78367 2.35443 0 3.67435 1.78367 1.31991 1.76582 1.31991 4.70887 0 2.94305-1.31991 4.72672-1.31992 1.76582-3.67435 1.76582zm-1.89069-3.44247q.64212 1.03453 1.89069 1.03453 1.24856 0 1.89068-1.05237.65996-1.05236.65996-3.03223 0-1.9977-.65996-3.05007-.64212-1.05236-1.89068-1.05236-1.24857 0-1.89069 1.05236-.64212 1.05237-.64212 3.05007 0 1.99771.64212 3.05007z" style="-inkscape-font-specification:Gilroy-Bold"/>
  </g>
  <g aria-label="350" style="line-height:1.25;-inkscape-font-specification:'Futura Md BT'" font-weight="400" font-size="17.83665276" font-family="Gilroy-Bold" letter-spacing="0" word-spacing="0" fill="#a2a2a4" stroke-width=".83609307">
    <path d="M575.49238 112.46592q1.26641.37457 2.05122 1.31992.80265.9275.80265 2.24741 0 1.92636-1.30208 3.0144-1.28424 1.08803-3.15709 1.08803-1.4626 0-2.62198-.65995-1.14155-.67779-1.65881-1.97987l2.10472-1.21289q.46376 1.44477 2.17607 1.44477.94535 0 1.46261-.44592.5351-.46375.5351-1.24857 0-.76697-.5351-1.23072-.51726-.46376-1.46261-.46376h-.53509l-.94535-1.42693 2.46146-3.2106h-4.88724v-2.30093h7.84812v2.03338zM583.7357 111.94866q1.80151 0 3.03223 1.08804 1.23073 1.0702 1.23073 2.99655 0 1.92636-1.30207 3.0144-1.28424 1.08803-3.15709 1.08803-1.51612 0-2.6755-.67779t-1.67664-1.9977l2.10472-1.23073q.46376 1.49828 2.24742 1.49828.94534 0 1.46261-.44592.5351-.46375.5351-1.24857 0-.76697-.51727-1.23072-.51726-.46376-1.40909-.46376h-3.78137l.49942-6.93846h7.08115v2.30093h-4.79806l-.16053 2.24742zM593.94022 120.13568q-2.3366 0-3.67435-1.76582-1.31991-1.78367-1.31991-4.72672 0-2.94305 1.31991-4.70887 1.33775-1.78367 3.67435-1.78367 2.35444 0 3.67435 1.78367 1.31991 1.76582 1.31991 4.70887 0 2.94305-1.31991 4.72672-1.31991 1.76582-3.67435 1.76582zm-1.89069-3.44247q.64212 1.03453 1.89069 1.03453t1.89069-1.05237q.65995-1.05236.65995-3.03223 0-1.9977-.65995-3.05007-.64212-1.05236-1.89069-1.05236t-1.89069 1.05236q-.64211 1.05237-.64211 3.05007 0 1.99771.64211 3.05007z" style="-inkscape-font-specification:Gilroy-Bold"/>
  </g>
  <g aria-label="150" style="line-height:1.25;-inkscape-font-specification:'Futura Md BT'" font-weight="400" font-size="17.83665276" font-family="Gilroy-Bold" letter-spacing="0" word-spacing="0" fill="#d09e84" stroke-width=".83609307">
    <path d="M297.41644 107.40031h2.1404v12.48566h-2.46146v-9.8815l-2.35444.65995-.60644-2.10472zM305.83032 111.94866q1.80151 0 3.03224 1.08804 1.23072 1.0702 1.23072 2.99655 0 1.92636-1.30207 3.0144-1.28424 1.08803-3.15709 1.08803-1.51611 0-2.6755-.67779-1.15938-.67779-1.67664-1.9977l2.10472-1.23073q.46376 1.49828 2.24742 1.49828.94534 0 1.46261-.44592.5351-.46375.5351-1.24857 0-.76697-.51727-1.23072-.51726-.46376-1.40909-.46376h-3.78137l.49942-6.93846h7.08115v2.30093h-4.79805l-.16053 2.24742zM316.03484 120.13568q-2.3366 0-3.67435-1.76582-1.31991-1.78367-1.31991-4.72672 0-2.94305 1.31991-4.70887 1.33775-1.78367 3.67435-1.78367 2.35444 0 3.67435 1.78367 1.31991 1.76582 1.31991 4.70887 0 2.94305-1.31991 4.72672-1.31991 1.76582-3.67435 1.76582zm-1.89069-3.44247q.64212 1.03453 1.89069 1.03453t1.89068-1.05237q.65996-1.05236.65996-3.03223 0-1.9977-.65996-3.05007-.64211-1.05236-1.89068-1.05236t-1.89069 1.05236q-.64211 1.05237-.64211 3.05007 0 1.99771.64211 3.05007z" style="-inkscape-font-specification:Gilroy-Bold"/>
  </g>
  <g aria-label="0" style="line-height:1.25;-inkscape-font-specification:'Futura Md BT'" font-weight="400" font-size="17.83665276" font-family="Futura Md BT" letter-spacing="0" word-spacing="0" fill="#d0d0d0" stroke-width=".83609307">
    <path d="M30.893169 120.13568q-2.336601 0-3.67435-1.76582-1.319912-1.78367-1.319912-4.72672 0-2.94305 1.319912-4.70887 1.337749-1.78367 3.67435-1.78367 2.354439 0 3.674351 1.78367 1.319912 1.76582 1.319912 4.70887 0 2.94305-1.319912 4.72672-1.319912 1.76582-3.674351 1.76582zm-1.890685-3.44247q.64212 1.03453 1.890685 1.03453 1.248566 0 1.890686-1.05237.659956-1.05236.659956-3.03223 0-1.9977-.659956-3.05007-.64212-1.05236-1.890686-1.05236-1.248565 0-1.890685 1.05236-.642119 1.05237-.642119 3.05007 0 1.99771.642119 3.05007z" style="-inkscape-font-specification:Gilroy-Bold" font-family="Gilroy-Bold"/>
  </g>
</svg>
